<?xml version="1.0" encoding="UTF-8" standalone="no"?>
<!DOCTYPE svg PUBLIC "-//W3C//DTD SVG 1.1//EN" "http://www.w3.org/Graphics/SVG/1.1/DTD/svg11.dtd">
<svg width="100%" height="100%" viewBox="0 0 10 10" version="1.1" xmlns="http://www.w3.org/2000/svg" xmlns:xlink="http://www.w3.org/1999/xlink" xml:space="preserve" xmlns:serif="http://www.serif.com/" style="fill-rule:evenodd;clip-rule:evenodd;stroke-linejoin:round;stroke-miterlimit:2;">
    <g transform="matrix(1,0,0,1,-78.5375,-77.0228)">
        <g transform="matrix(4.16667,0,0,4.16667,0,0)">
            <g transform="matrix(1,0,0,1,0,-0.0635324)">
                <path d="M20.857,20.418C20.855,20.524 20.828,20.554 20.722,20.554L19.242,20.554C19.138,20.554 19.109,20.524 19.109,20.418C19.109,20.147 19.11,19.87 19.105,19.594C19.105,19.516 19.127,19.498 19.199,19.501C19.302,19.508 19.304,19.504 19.293,19.605C19.252,19.956 19.495,20.294 19.839,20.362C20.195,20.43 20.55,20.217 20.648,19.876C20.677,19.77 20.686,19.657 20.664,19.551C20.656,19.512 20.666,19.504 20.701,19.504C20.857,19.493 20.857,19.49 20.857,19.652L20.857,20.418ZM19.984,19.241C20.22,19.241 20.423,19.445 20.419,19.68C20.418,19.921 20.216,20.122 19.976,20.118C19.738,20.112 19.537,19.912 19.543,19.674C19.548,19.437 19.748,19.241 19.984,19.241ZM20.632,18.804C20.857,18.804 20.857,18.804 20.857,19.029C20.857,19.248 20.857,19.248 20.636,19.248C20.414,19.248 20.414,19.248 20.414,19.026C20.414,18.804 20.414,18.804 20.632,18.804ZM20.816,18.549L19.15,18.549C18.952,18.549 18.849,18.653 18.849,18.852L18.849,20.514C18.849,20.706 18.955,20.811 19.14,20.811L20.816,20.811C21.009,20.811 21.116,20.706 21.116,20.511L21.116,18.845C21.116,18.653 21.009,18.549 20.816,18.549Z" style="fill:white;"/>
            </g>
        </g>
    </g>
</svg>
