<svg width="19" height="19" xmlns="http://www.w3.org/2000/svg"><path d="M18.326 11.59c.026 2.244.01 4.486.01 6.73H14.39c-.001-.114-.004-.229-.004-.343 0-1.972.01-3.944-.008-5.916a5.735 5.735 0 00-.171-1.397c-.367-1.381-1.995-1.882-3.113-.978-.607.492-.877 1.128-.873 1.912.012 2.15.005 4.3.004 6.452 0 .09-.024.18-.037.27H6.287c-.013-.069-.04-.136-.04-.204L6.28 6.541c0-.035.006-.07.012-.12h3.927v1.582l.044.01c.124-.162.24-.327.37-.483.678-.816 1.55-1.267 2.602-1.366 1.173-.11 2.283.073 3.253.79.891.658 1.406 1.575 1.62 2.64a10.9 10.9 0 01.22 1.996zM.132 6.42h3.945c.004.073.01.149.01.224V18.09c0 .077-.02.154-.029.23H.156c-.008-.09-.024-.183-.024-.275V6.42zM2.11.68a2.046 2.046 0 11.001 4.092 2.046 2.046 0 010-4.092z" fill="#FFF" fill-rule="evenodd"/></svg>