<svg width="20" height="17" xmlns="http://www.w3.org/2000/svg"><path d="M.248 14.65c2.148.2 4.086-.332 5.805-1.652-.836-.057-1.595-.316-2.263-.814-.674-.5-1.137-1.154-1.424-1.983.597.096 1.161.08 1.754-.064-1.99-.6-3.038-1.902-3.15-3.95.56.248 1.12.441 1.783.446-1.003-.728-1.59-1.666-1.727-2.85-.115-.988.11-1.794.513-2.465C3.704 3.857 6.438 5.26 9.781 5.489c-.026-.25-.057-.469-.07-.691-.069-1.333.41-2.445 1.422-3.293 1.06-.887 2.288-1.135 3.63-.79a3.767 3.767 0 011.768 1.03c.066.067.13.077.222.056a7.809 7.809 0 002.153-.804c.064-.035.13-.065.196-.097.007-.002.018.006.044.012-.3.896-.861 1.584-1.643 2.104.005.014.01.028.013.042.24-.041.48-.075.715-.13.243-.055.484-.124.72-.2.237-.075.468-.166.701-.25l.03.03c-.24.294-.46.609-.725.878-.357.361-.744.692-1.125 1.03-.084.075-.127.145-.122.264a10.889 10.889 0 01-.416 3.407 11.941 11.941 0 01-1.122 2.682 11.531 11.531 0 01-2.011 2.606 10.592 10.592 0 01-3.44 2.236 11.391 11.391 0 01-3.887.814 11.486 11.486 0 01-2.838-.225c-.937-.2-1.846-.495-2.7-.938-.355-.185-.704-.377-1.055-.567a2.97 2.97 0 00.007-.044" fill="#FFF" fill-rule="evenodd"/></svg>