<svg width="22" height="15" xmlns="http://www.w3.org/2000/svg"><path d="M8.535 11.068V3.974l6.237 3.547-6.237 3.547zm12.837-8.925c-.204-.809-.81-1.447-1.578-1.668C19.18.32 17.741.208 15.77.137a134.347 134.347 0 00-4.11-.08h-.771c-.307.002-.65.006-1.02.01-1.054.014-2.107.039-3.09.078C4.81.22 3.372.345 2.768.51a2.311 2.311 0 00-1.59 1.654 30.187 30.187 0 00-.456 5.358c-.01 1.809.142 3.614.443 5.345a2.32 2.32 0 001.597 1.62c.61.168 2.047.29 4.014.369a120.558 120.558 0 004.496.087c.07 0 .201 0 .386-.002a120.305 120.305 0 004.11-.086c1.967-.077 3.405-.2 4.007-.366a2.31 2.31 0 001.592-1.655c.309-1.752.46-3.53.455-5.317a30.15 30.15 0 00-.45-5.375z" fill="#FFF" fill-rule="evenodd"/></svg>